<svg width="1134" height="249" viewBox="0 0 1134 249" fill="none" xmlns="http://www.w3.org/2000/svg">
<g clip-path="url(#clip0_2_740)">
<rect y="0.160889" width="1134" height="249" rx="8" fill="#2698EA"/>
<rect y="0.160889" width="1134" height="249" rx="8" fill="url(#paint0_linear_2_740)"/>
<mask id="mask0_2_740" style="mask-type:alpha" maskUnits="userSpaceOnUse" x="0" y="0" width="1134" height="250">
<rect y="0.160889" width="1134" height="249" rx="8" fill="#2698EA"/>
<rect y="0.160889" width="1134" height="249" rx="8" fill="url(#paint1_linear_2_740)"/>
</mask>
<g mask="url(#mask0_2_740)">
</g>
<g style="mix-blend-mode:overlay" opacity="0.2" clip-path="url(#clip1_2_740)">
<g clip-path="url(#clip2_2_740)">
<rect x="59" y="124.497" width="56" height="62" rx="15.4476" transform="rotate(-30 59 124.497)" fill="#F3F4F8"/>
<rect x="97" y="189.497" width="56" height="62" rx="15.4476" transform="rotate(-30 97 189.497)" fill="#F3F4F8"/>
<rect x="-29" y="46.4968" width="93" height="97" rx="15.4476" transform="rotate(-30 -29 46.4968)" fill="#F3F4F8"/>
<rect x="81" y="24.4968" width="56" height="62" rx="15.4476" transform="rotate(-30 81 24.4968)" fill="#F3F4F8"/>
<rect x="119" y="89.4968" width="56" height="62" rx="15.4476" transform="rotate(-30 119 89.4968)" fill="#F3F4F8"/>
</g>
</g>
</g>
<defs>
<linearGradient id="paint0_linear_2_740" x1="3.72024e-07" y1="183.661" x2="1101" y2="173.661" gradientUnits="userSpaceOnUse">
<stop stop-color="#1749D8"/>
<stop offset="1" stop-color="#5470C0" stop-opacity="0"/>
</linearGradient>
<linearGradient id="paint1_linear_2_740" x1="3.72024e-07" y1="183.661" x2="1101" y2="173.661" gradientUnits="userSpaceOnUse">
<stop stop-color="#1749D8"/>
<stop offset="1" stop-color="#5470C0" stop-opacity="0"/>
</linearGradient>
<clipPath id="clip0_2_740">
<rect width="1134" height="249" fill="white"/>
</clipPath>
<clipPath id="clip1_2_740">
<rect width="265.299" height="296.839" fill="white" transform="translate(-29 -34.8391)"/>
</clipPath>
<clipPath id="clip2_2_740">
<rect width="162.672" height="248.842" fill="white" transform="translate(-29 46.4968) rotate(-30)"/>
</clipPath>
</defs>
</svg>
