<svg width="35" height="35" viewBox="0 0 35 35" fill="none" xmlns="http://www.w3.org/2000/svg">
<circle cx="17.5" cy="17.5" r="17" fill="white" stroke="white"/>
<path d="M19.2405 18.0246L24.4513 12.8137C24.7904 12.4747 24.7904 11.9267 24.4513 11.5877C24.1123 11.2488 23.5643 11.2488 23.2253 11.5877L18.0144 16.7987L12.8035 11.5877C12.4644 11.2488 11.9165 11.2488 11.5776 11.5877C11.2385 11.9267 11.2385 12.4747 11.5776 12.8137L16.7884 18.0246L11.5776 23.2356C11.2385 23.5746 11.2385 24.1226 11.5776 24.4616C11.7465 24.6306 11.9686 24.7156 12.1906 24.7156C12.4125 24.7156 12.6344 24.6306 12.8035 24.4616L18.0144 19.2506L23.2253 24.4616C23.3944 24.6306 23.6164 24.7156 23.8383 24.7156C24.0603 24.7156 24.2822 24.6306 24.4513 24.4616C24.7904 24.1226 24.7904 23.5746 24.4513 23.2356L19.2405 18.0246Z" fill="#548CFF"/>
</svg>
