<svg width="15" height="15" viewBox="0 0 15 15" fill="none" xmlns="http://www.w3.org/2000/svg">
<path d="M11.3863 4.54805C11.8834 4.54805 12.2863 4.1451 12.2863 3.64805C12.2863 3.15099 11.8834 2.74805 11.3863 2.74805C10.8893 2.74805 10.4863 3.15099 10.4863 3.64805C10.4863 4.1451 10.8893 4.54805 11.3863 4.54805Z" fill="#F3F4F8"/>
<path d="M7.5 11.25C5.43187 11.25 3.75 9.56813 3.75 7.5C3.75 5.43188 5.43187 3.75 7.5 3.75C9.56813 3.75 11.25 5.43188 11.25 7.5C11.25 9.56813 9.56813 11.25 7.5 11.25ZM7.5 5.625C6.46594 5.625 5.625 6.46594 5.625 7.5C5.625 8.53406 6.46594 9.375 7.5 9.375C8.53406 9.375 9.375 8.53406 9.375 7.5C9.375 6.46594 8.53406 5.625 7.5 5.625Z" fill="#F3F4F8"/>
<path d="M11.25 15H3.75C1.8225 15 0 13.1775 0 11.25V3.75C0 1.8225 1.8225 0 3.75 0H11.25C13.1775 0 15 1.8225 15 3.75V11.25C15 13.1775 13.1775 15 11.25 15ZM3.75 1.875C2.87344 1.875 1.875 2.87344 1.875 3.75V11.25C1.875 12.1434 2.85656 13.125 3.75 13.125H11.25C12.1266 13.125 13.125 12.1266 13.125 11.25V3.75C13.125 2.87344 12.1266 1.875 11.25 1.875H3.75Z" fill="#F3F4F8"/>
</svg>
