<svg width="21" height="17" viewBox="0 0 21 17" fill="none" xmlns="http://www.w3.org/2000/svg">
<path d="M13.5179 0.064957C13.121 0.15345 12.8799 0.237026 12.5384 0.404179C11.4182 0.949885 10.6195 1.91839 10.298 3.11796C10.1875 3.54567 10.1473 4.35686 10.2177 4.78457L10.2629 5.02547L9.79069 4.99597C8.12301 4.88781 6.28454 4.30278 4.72736 3.37852C3.8684 2.87214 3.24051 2.38052 2.39662 1.5595C1.49748 0.67949 1.57785 0.699155 1.34176 1.28419C0.949958 2.28219 0.914796 3.18679 1.24632 4.09629C1.5025 4.80424 2.045 5.57609 2.59253 6.01364L2.87885 6.23979H2.7181C2.42676 6.23979 1.78882 6.08738 1.40204 5.92023L1.01024 5.75799V6.00381C1.01024 6.86907 1.47739 7.91623 2.18565 8.63892C2.70806 9.1748 3.22042 9.49436 3.94878 9.73034L4.35063 9.86307L3.91864 9.92699C3.66748 9.9614 3.27065 9.98107 2.97428 9.96632C2.37653 9.93682 2.3916 9.89257 2.75327 10.571C3.14507 11.3035 3.78803 11.9377 4.52644 12.3065C5.06391 12.5769 5.34521 12.6653 5.90278 12.744L6.34984 12.8079L6.15394 12.9603C6.04845 13.0439 5.80734 13.2012 5.62148 13.3143C4.16477 14.1796 2.54229 14.5974 0.839449 14.5384C0.0960232 14.5089 0.0960232 14.5139 0.834425 14.9022C3.36107 16.2296 6.08863 16.6574 8.92169 16.1657C13.2064 15.4234 16.6121 12.4343 18.0136 8.20138C18.3903 7.0608 18.5912 5.85632 18.5912 4.74033V4.08646L18.8826 3.87506C19.4201 3.47685 20.2589 2.60175 20.6256 2.04621L20.716 1.91347L20.4799 2.0118C19.9676 2.2232 18.4807 2.60667 18.4154 2.54275C18.4054 2.53292 18.5561 2.4051 18.752 2.25761C19.3096 1.83973 19.842 1.12687 20.0731 0.48284L20.1384 0.300938L19.5306 0.586081C18.9579 0.856476 18.2698 1.09737 17.7273 1.23011L17.4861 1.28419L17.2249 1.05313C16.6975 0.586081 16.0596 0.256691 15.3614 0.0944546C14.8842 -0.0186195 13.9699 -0.0333683 13.5179 0.064957Z" fill="#11161F"/>
</svg>
