<svg width="21" height="21" viewBox="0 0 21 21" fill="none" xmlns="http://www.w3.org/2000/svg">
<path d="M5.13152 1.05371C2.85655 1.36621 1.02461 2.96778 0.465842 5.13574C0.409965 5.33887 0.350098 5.66309 0.326151 5.8584C0.266283 6.34278 0.266283 15.6475 0.326151 16.1318C0.601542 18.4092 2.25788 20.2607 4.51289 20.8154C4.72043 20.8701 5.05569 20.9287 5.25126 20.9521C5.74616 21.0107 15.2531 21.0107 15.748 20.9521C17.8434 20.71 19.5955 19.3701 20.3578 17.4326C20.4816 17.1162 20.6253 16.5225 20.6731 16.1318C20.733 15.6475 20.733 6.34278 20.6731 5.8584C20.4257 3.80762 19.0567 2.09278 17.0771 1.34668C16.7538 1.22559 16.1472 1.08496 15.748 1.03809C15.2013 0.971682 5.60647 0.987307 5.13152 1.05371ZM16.9494 3.60059C17.4642 3.76856 17.8793 4.17481 18.0549 4.68262C18.1388 4.92481 18.1427 5.40137 18.0629 5.65918C17.7356 6.71778 16.4465 7.1709 15.5086 6.55762C14.9578 6.20215 14.6664 5.56543 14.7662 4.94434C14.87 4.31934 15.305 3.80762 15.8997 3.6084C16.1711 3.51856 16.686 3.51074 16.9494 3.60059ZM11.3777 5.58496C12.5631 5.77637 13.6088 6.29981 14.4509 7.12793C15.5245 8.17481 16.0873 9.50684 16.0873 10.9951C16.0873 12.4834 15.5245 13.8154 14.4509 14.8623C13.3813 15.9131 12.0203 16.4639 10.4996 16.4639C8.97901 16.4639 7.61802 15.9131 6.54839 14.8623C5.47476 13.8154 4.91201 12.4834 4.91201 10.9951C4.91201 9.50684 5.47476 8.17481 6.54839 7.12793C7.37456 6.31543 8.42424 5.78418 9.58168 5.58496C9.99277 5.51856 10.9626 5.51465 11.3777 5.58496Z" fill="#11161F"/>
<path d="M16.2036 4.76333C15.9721 4.88443 15.8843 5.21646 16.024 5.42739C16.2954 5.83364 16.926 5.65396 16.926 5.17349C16.926 4.82193 16.5189 4.59537 16.2036 4.76333Z" fill="#11161F"/>
<path d="M9.72537 6.76094C7.64597 7.12813 6.10938 8.925 6.10938 10.9953C6.10938 13.6477 8.57991 15.6867 11.242 15.2336C14.1675 14.7336 15.756 11.6047 14.399 9.02266C13.521 7.3625 11.5972 6.42891 9.72537 6.76094Z" fill="#11161F"/>
</svg>
