<svg width="15" height="12" viewBox="0 0 15 12" fill="none" xmlns="http://www.w3.org/2000/svg">
<path d="M15 1.38462C14.4375 1.66154 13.875 1.75385 13.2188 1.84615C13.875 1.47692 14.3438 0.923077 14.5312 0.184615C13.9688 0.553846 13.3125 0.738462 12.5625 0.923077C12 0.369231 11.1562 0 10.3125 0C8.71875 0 7.3125 1.38462 7.3125 3.04615C7.3125 3.32308 7.3125 3.50769 7.40625 3.69231C4.875 3.6 2.53125 2.4 1.03125 0.553846C0.75 1.01538 0.65625 1.47692 0.65625 2.12308C0.65625 3.13846 1.21875 4.06154 2.0625 4.61538C1.59375 4.61538 1.125 4.43077 0.65625 4.24615C0.65625 5.72308 1.6875 6.92308 3.09375 7.2C2.8125 7.29231 2.53125 7.29231 2.25 7.29231C2.0625 7.29231 1.875 7.29231 1.6875 7.2C2.0625 8.4 3.1875 9.32308 4.59375 9.32308C3.5625 10.1538 2.25 10.6154 0.75 10.6154C0.46875 10.6154 0.28125 10.6154 0 10.6154C1.40625 11.4462 3 12 4.6875 12C10.3125 12 13.4062 7.38462 13.4062 3.41538C13.4062 3.32308 13.4062 3.13846 13.4062 3.04615C14.0625 2.58462 14.625 2.03077 15 1.38462Z" fill="#F3F4F8"/>
</svg>
