<svg width="15" height="15" viewBox="0 0 15 15" fill="none" xmlns="http://www.w3.org/2000/svg">
<path d="M15 7.50164C15.0003 6.06828 14.5899 4.66485 13.8173 3.45752C13.0447 2.25019 11.9424 1.28954 10.6407 0.689296C9.33912 0.0890558 7.89275 -0.125627 6.4729 0.0706667C5.05304 0.266961 3.71918 0.86601 2.62923 1.79688C1.53928 2.72776 0.738905 3.95147 0.322871 5.32312C-0.0931625 6.69477 -0.107429 8.15692 0.28176 9.53643C0.67095 10.9159 1.44729 12.155 2.51887 13.107C3.59045 14.059 4.91237 14.6839 6.32812 14.9079V9.66914H4.42406V7.50164H6.32812V5.84882C6.28713 5.46299 6.3315 5.07287 6.45809 4.7061C6.58468 4.33933 6.79039 4.00489 7.06065 3.72649C7.33091 3.4481 7.65909 3.23255 8.02195 3.09513C8.3848 2.95771 8.77344 2.90179 9.16031 2.93132C9.72283 2.93871 10.284 2.9876 10.8394 3.07757V4.92539H9.89437C9.7334 4.90434 9.56975 4.91975 9.41554 4.97049C9.26132 5.02124 9.12049 5.10601 9.00347 5.21853C8.88644 5.33105 8.79622 5.46845 8.73947 5.62056C8.68272 5.77266 8.6609 5.93558 8.67562 6.09726V7.50351H10.7559L10.4231 9.67101H8.67188V14.9126C10.4365 14.6334 12.0435 13.7335 13.2036 12.3749C14.3637 11.0163 15.0007 9.28818 15 7.50164Z" fill="#F3F4F8"/>
</svg>
