<svg width="146" height="166" viewBox="0 0 146 166" fill="none" xmlns="http://www.w3.org/2000/svg">
<circle cx="27.1571" cy="163" r="3" fill="#0DBA7C"/>
<path fill-rule="evenodd" clip-rule="evenodd" d="M115.799 58.56C122.196 55.5292 124.925 47.8867 121.894 41.4901L110.918 18.3256C110.908 18.3037 110.898 18.2818 110.887 18.26L102.91 35.4291C102.686 35.9105 102.114 36.1195 101.633 35.8958C101.152 35.6721 100.943 35.1004 101.166 34.619L109.695 16.2627C108.718 14.9195 107.509 13.8075 106.151 12.9568L96.8863 32.8958C96.6627 33.3773 96.091 33.5862 95.6096 33.3626C95.1281 33.1389 94.9192 32.5672 95.1429 32.0858L104.447 12.06C103.098 11.474 101.652 11.1201 100.174 11.022L90.6031 31.6205C90.3794 32.1019 89.8078 32.3109 89.3264 32.0872C88.8449 31.8635 88.636 31.2918 88.8597 30.8104L98.0365 11.0594C96.6217 11.2036 95.207 11.5875 93.8484 12.2312L75.3168 21.0117C68.9202 24.0425 66.1916 31.685 69.2224 38.0816L80.198 61.2461C83.2288 67.6427 90.8713 70.3713 97.2679 67.3405L115.799 58.56Z" fill="#4F88FF"/>
<circle cx="106.657" cy="3.5" r="3.5" fill="#4F88FF"/>
<path fill-rule="evenodd" clip-rule="evenodd" d="M57.1237 143.56C63.5204 140.529 66.249 132.887 63.2181 126.49L52.2426 103.326C49.2118 96.929 41.5693 94.2004 35.1726 97.2312L16.6411 106.012C10.863 108.749 8.07787 115.25 9.82702 121.196L24.407 110.714C24.8381 110.404 25.4387 110.503 25.7486 110.934C26.0585 111.365 25.9603 111.965 25.5292 112.275L10.5343 123.055L10.5466 123.082L12.4117 127.018L29.2567 114.908C29.6877 114.598 30.2883 114.696 30.5982 115.127C30.9081 115.558 30.8099 116.159 30.3789 116.469L13.2485 128.784L15.2537 133.016L33.2645 120.068C33.6955 119.758 34.2962 119.856 34.606 120.287C34.9159 120.718 34.8177 121.319 34.3867 121.629L16.0905 134.782L21.5222 146.246C24.553 152.643 32.1955 155.371 38.5922 152.34L57.1237 143.56Z" fill="#0DBA7C"/>
<path fill-rule="evenodd" clip-rule="evenodd" d="M72.0669 87.7366C67.6985 89.8064 65.835 95.0257 67.9049 99.3942L84.0202 133.406C86.0901 137.775 91.3094 139.638 95.6778 137.569L120.482 125.816L102.783 116.911C102.351 116.694 102.177 116.168 102.394 115.736C102.611 115.304 103.138 115.13 103.57 115.347L122.488 124.865L127.317 122.577C127.719 122.387 128.1 122.17 128.459 121.929L105.798 110.528C105.367 110.311 105.193 109.785 105.41 109.353C105.627 108.921 106.153 108.747 106.585 108.964L129.914 120.701C131.136 119.415 131.929 117.792 132.21 116.067L107.982 103.878C107.55 103.66 107.376 103.134 107.593 102.702C107.811 102.271 108.337 102.097 108.769 102.314L132.31 114.158C132.246 113.066 131.976 111.969 131.479 110.92L115.364 76.9076C113.294 72.5392 108.075 70.6757 103.706 72.7456L72.0669 87.7366Z" fill="#9E4BFA"/>
<circle cx="141.657" cy="121.5" r="3.5" fill="#9E4BFA"/>
</svg>
